<?xml version="1.0" encoding="utf-8"?>
<!-- Generator: Adobe Illustrator 26.5.0, SVG Export Plug-In . SVG Version: 6.00 Build 0)  -->
<svg version="1.1"
	 id="Layer_1" shape-rendering="crispEdges" xmlns:svg="http://www.w3.org/2000/svg" xmlns:inkscape="http://www.inkscape.org/namespaces/inkscape" xmlns:sodipodi="http://sodipodi.sourceforge.net/DTD/sodipodi-0.dtd"
	 xmlns="http://www.w3.org/2000/svg" xmlns:xlink="http://www.w3.org/1999/xlink" x="0px" y="0px" viewBox="0 0 320 320"
	 style="enable-background:new 0 0 320 320;" xml:space="preserve">
<style type="text/css">
	.st0{fill:#D0D0D0;}
	.st1{fill:#A0A0A0;}
	.st2{fill:#E8E8E8;}
</style>
<path id="d0d0d0" class="st0" d="M150,50h10v10h-10V50z M140,10h10v10h-10V10z M180,30h10v10h-10V30z M130,40h10v10h-10V40z M190,50
	h10v10h-10V50z M120,30h10v10h-10V30z M140,30h10v10h-10V30z M170,40h10v10h-10V40z M130,20h10v10h-10V20z M110,50h10v10h-10V50z
	 M150,0h10v10h-10V0z M160,20h-10v10h10h10V20V10h-10V20z"/>
<path id="a0a0a0" class="st1" d="M160,30h10v10h-10V30z M150,40h10v10h-10V40z M140,20h10v10h-10V20z M190,40h10v10h-10V40z M200,50
	h10v10h-10V50z M150,10h10v10h-10V10z M190,50h-10v10h-10V50h-10v10h-10V50h-10v10h-10V50h-10v10h-10v10h90V60h-10V50z M130,30h10
	v10h-10V30z M170,20h10v10h-10V20z M100,50h10v10h-10V50z M110,40h10v10h-10V40z"/>
<path id="e8e8e8" class="st2" d="M170,30h10v10h-10V30z M160,40h10v10h-10V40z M170,50h10v10h-10V50z M180,40h10v10h-10V40z M140,40
	h10v10h-10V40z M130,50h10v10h-10V50z M120,40h10v10h-10V40z M150,30h10v10h-10V30z"/>
</svg>
