<?xml version="1.0" encoding="utf-8"?>
<!-- Generator: Adobe Illustrator 26.5.0, SVG Export Plug-In . SVG Version: 6.00 Build 0)  -->
<svg version="1.1"
	 id="Layer_1" shape-rendering="crispEdges" xmlns:svg="http://www.w3.org/2000/svg" xmlns:inkscape="http://www.inkscape.org/namespaces/inkscape" xmlns:sodipodi="http://sodipodi.sourceforge.net/DTD/sodipodi-0.dtd"
	 xmlns="http://www.w3.org/2000/svg" xmlns:xlink="http://www.w3.org/1999/xlink" x="0px" y="0px" viewBox="0 0 320 320"
	 style="enable-background:new 0 0 320 320;" xml:space="preserve">
<style type="text/css">
	.st0{fill:#FFFFFF;}
	.st1{fill:#C0C0C0;}
	.st2{fill:#8D8D8D;}
	.st3{fill:#404040;}
	.st4{fill:#7F3300;}
	.st5{fill:#AB6434;}
</style>
<path id="ffffff" class="st0" d="M0,130h10v10H0V130z M10,120h10v10H10V120z M20,110h10v10H20V110z"/>
<path id="c0c0c0" class="st1" d="M0,140h10v10H0V140z M70,110h10v10H70V110z M30,110h10v10H30V110z M80,120h10v10H80V120z M90,130
	h10v10H90V130z M20,120h10v10H20V120z M10,130h10v10H10V130z"/>
<path id="_x38_d8d8d" class="st2" d="M40,120h30v-10H60H40V120z M0,150h10v10H0V150z M70,120h10v10H70V120z M90,140h10v10H90V140z
	 M80,130h10v10H80V130z"/>
<path id="_x34_04040" class="st3" d="M70,130h10v10H70V130z M80,140h10v10H80V140z M70,130v-10H40H30v10h10h20H70z M20,130h10v10H20
	V130z M10,140h10v10H10V140z M90,150h10v10H90V150z"/>
<path id="_x37_f3300" class="st4" d="M60,130H40v10h10v90H40v10h10h10v-50V130z"/>
<path id="ab6434" class="st5" d="M50,140H40v40v30v20h10V140z"/>
</svg>
