<?xml version="1.0" encoding="utf-8"?>
<!-- Generator: Adobe Illustrator 26.5.0, SVG Export Plug-In . SVG Version: 6.00 Build 0)  -->
<svg version="1.1"
	 id="Layer_1" shape-rendering="crispEdges" xmlns:svg="http://www.w3.org/2000/svg" xmlns:inkscape="http://www.inkscape.org/namespaces/inkscape" xmlns:sodipodi="http://sodipodi.sourceforge.net/DTD/sodipodi-0.dtd"
	 xmlns="http://www.w3.org/2000/svg" xmlns:xlink="http://www.w3.org/1999/xlink" x="0px" y="0px" viewBox="0 0 320 320"
	 style="enable-background:new 0 0 320 320;" xml:space="preserve">
<style type="text/css">
	.st0{fill:#058605;}
	.st1{fill:#65FF65;}
	.st2{fill:#03A703;}
	.st3{fill:#00C900;}
</style>
<path id="_x30_58605" class="st0" d="M260,120h10v10h-10V120z M260,150v10h10v10h10v10h10v-20v-10h-20H260z M290,210v10h-10v10h20
	v-40h-10V210z M230,150h30v-10v-10h-10v10h-10h-10V150z M310,120v10h10v-20h-10V120z M250,120h10v-10h-10v-10h-10v10h-10v10h10H250z
	 M280,100v10h10h10h10v-10h-20V90h-40v10h20H280z M220,140h10v-10v-10h-10V140z M290,130v10v10h10v-10h10v-10h-10H290z M270,110h10
	v10h-10V110z M280,120h10v10h-10V120z"/>
<path id="_x36_5ff65" class="st1" d="M260,130h10v10h-10V130z M250,110h10h10v-10h-20V110z M290,110h10v10h-10V110z M230,120h10v10
	h-10V120z"/>
<path id="_x30_3a703" class="st2" d="M240,130h10v10h-10V130z M250,120h10v10h-10V120z M300,120h10v10h-10V120z M280,210h10v10h-10
	V210z M270,100h10v10h-10V100z M270,140h20v10h-20V140z M280,180h10v10h-10V180z"/>
<path id="_x30_0c900" class="st3" d="M280,110h10v10h-10V110z M280,120h-10v10v10h20v-10h-10V120z M260,140h10v10h-10V140z M300,110
	h10v10h-10V110z M290,120h10v10h-10V120z M280,180v-10h-10v20h10V180z M230,130h10v10h-10V130z M260,110h10v10h-10V110z M240,120h10
	v10h-10V120z M280,190h10v20h-10V190z"/>
</svg>
