<?xml version="1.0" encoding="utf-8"?>
<!-- Generator: Adobe Illustrator 26.5.0, SVG Export Plug-In . SVG Version: 6.00 Build 0)  -->
<svg version="1.1"
	 id="Layer_1" shape-rendering="crispEdges" xmlns:svg="http://www.w3.org/2000/svg" xmlns:inkscape="http://www.inkscape.org/namespaces/inkscape" xmlns:sodipodi="http://sodipodi.sourceforge.net/DTD/sodipodi-0.dtd"
	 xmlns="http://www.w3.org/2000/svg" xmlns:xlink="http://www.w3.org/1999/xlink" x="0px" y="0px" viewBox="0 0 320 320"
	 style="enable-background:new 0 0 320 320;" xml:space="preserve">
<style type="text/css">
	.st0{fill:#FFFFFF;}
	.st1{fill:#F7931A;}
	.st2{fill:#FFD800;}
	.st3{fill:#FBAB00;}
	.st4{fill:#FDC100;}
</style>
<path id="ffffff" class="st0" d="M120,220h10v20h-10V220z M110,240h10v10h-10V240z M120,250h10v20h-10V250z M130,240h10v10h-10V240z
	"/>
<path id="f7931a" class="st1" d="M220,320h10v-30v-20h-10V320z M90,270v20v30h10v-50H90z M90,250h10v10H90V250z M220,250h10v10h-10
	V250z"/>
<path id="ffd800" class="st2" d="M200,310v-30h10v-30h10v-10v-10v-10h-10v-10h-90v10h10v20h10v10h-10v20h-10v10h10v30h10v10h50v-10
	H200z M120,240h10v10h-10V240z"/>
<path id="fbab00" class="st3" d="M220,240h10v10h-10V240z M220,260h10v10h-10V260z M90,240h10v10H90V240z M90,260h10v10H90V260z"/>
<path id="fdc100" class="st4" d="M210,210h10v10h-10V210z M220,260v-10h-10v30h-10v30h-10v10h30v-50V260z M220,230h10v10h-10V230z
	 M130,310v-30h-10v-10v-20h-10v-10h10v-20v-10h-10h-10H90v20v10h10v10v10v10v50h40v-10H130z M220,220v10h10v-20h-10V220z"/>
</svg>
