<?xml version="1.0" encoding="utf-8"?>
<!-- Generator: Adobe Illustrator 26.5.0, SVG Export Plug-In . SVG Version: 6.00 Build 0)  -->
<svg version="1.1"
	 id="Layer_1" shape-rendering="crispEdges" xmlns:svg="http://www.w3.org/2000/svg" xmlns:inkscape="http://www.inkscape.org/namespaces/inkscape" xmlns:sodipodi="http://sodipodi.sourceforge.net/DTD/sodipodi-0.dtd"
	 xmlns="http://www.w3.org/2000/svg" xmlns:xlink="http://www.w3.org/1999/xlink" x="0px" y="0px" viewBox="0 0 320 320"
	 style="enable-background:new 0 0 320 320;" xml:space="preserve">
<style type="text/css">
	.st0{fill:#1F1F1F;}
</style>
<path id="_x31_f1f1f" class="st0" d="M150,300h30v10h-30V300z M140,210h50v80h-50V210z M110,230h10v20h-10V230z M110,260h10v50h-10
	V260z M200,210h10v10h-10V210z M120,210h10v10h-10V210z"/>
<path id="_x30_00000" d="M210,210v10h-10v-10h-10v80h-50v-80h-10v10h-10v-10h-10h-10H90v110h140V210h-10H210z M120,310h-10v-50h10
	V310z M120,250h-10v-20h10V250z M180,310h-30v-10h30V310z"/>
</svg>
