<?xml version="1.0" encoding="utf-8"?>
<!-- Generator: Adobe Illustrator 26.5.0, SVG Export Plug-In . SVG Version: 6.00 Build 0)  -->
<svg version="1.1"
	 id="Layer_1" shape-rendering="crispEdges" xmlns:svg="http://www.w3.org/2000/svg" xmlns:inkscape="http://www.inkscape.org/namespaces/inkscape" xmlns:sodipodi="http://sodipodi.sourceforge.net/DTD/sodipodi-0.dtd"
	 xmlns="http://www.w3.org/2000/svg" xmlns:xlink="http://www.w3.org/1999/xlink" x="0px" y="0px" viewBox="0 0 320 320"
	 style="enable-background:new 0 0 320 320;" xml:space="preserve">
<style type="text/css">
	.st0{fill:#F7931A;}
	.st1{fill:#FFD800;}
	.st2{fill:#FBAB00;}
	.st3{fill:#FFFFFF;}
	.st4{fill:#FDC100;}
</style>
<path id="f7931a" class="st0" d="M90,90H80v10h20V90H90z M170,170h10v10h-10V170z M70,100H60v20h10v-10V100z M150,170h10v10h-10V170
	z M130,60h10V50h-20v10H130z M90,130h10v10H90V130z M80,120H70v10h20v-10H80z M80,70H70v20h10V80V70z M90,60h10v10H90V60z M150,140
	h10v10h-10V140z M180,130h10v10h-10V130z M130,140h10v20h-10V140z M140,130h10v10h-10V130z M90,40H80v20h10V50V40z M160,180h10v10
	h-10V180z M170,140h10v10h-10V140z M140,160h10v10h-10V160z M200,160v-10v-10h-10v20H200z M180,160h10v10h-10V160z M130,120h10v-10
	h10v-10h-10V90h-10v10h-10v10h10V120z M180,120h10v-10h10v-10h-10V90h-10v10h-10v10h10V120z"/>
<path id="ffd800" class="st1" d="M150,160v10h10v10h10v-10h10v-10h10v-20h-10v10h-10v-10h-10v10h-10v-10h-10v20H150z M100,60h10v10
	h-10V60z M90,50h10v10H90V50z M90,80h10v10H90V80z M200,160h10v10h-10V160z M110,150h10v60h90v-30h-10v-10h-10v10h-10v10h-10v10h-10
	v-10h-10v-10h-10v-10h-10v-10v-20h10v-10h10h30h10v10h10v10h10V80h-10V70h-10V60h-20h-10v10h-10v10h-10V70h-10h-20v10v10h-10v10h10
	v10v10h-10v-10H80v10h10v10h10v10h10V150z M170,110v-10V90h10h10h10v10v10v10h-10h-10h-10V110z M120,110v-10V90h10h10h10v10v10v10
	h-10h-10h-10V110z M140,60h10v10h-10V60z"/>
<path id="fbab00" class="st2" d="M70,110h10v10H70V110z M100,100h10v10h-10V100z M110,150v-10h-10v70h10V150z M190,50h20v10h-20V50z
	 M210,60h10v20h-10V60z M180,170h10v10h-10V170z M160,190h10v10h-10V190z M160,140h10h10v-10h-30v10H160z M130,160h10v10h-10V160z
	 M140,170h10v10h-10V170z M150,180h10v10h-10V180z M170,180h10v10h-10V180z M110,50h10v10h-10V50z M100,70h10v10h-10V70z M80,80h10
	v10H80V80z M160,60h10V50h-20v10H160z M190,90h10v10h-10V90z M190,110h10v10h-10V110z M120,110h10v10h-10V110z M140,90h10v10h-10V90
	z M140,110h10v10h-10V110z M170,110h10v10h-10V110z"/>
<path id="ffffff" class="st3" d="M170,90h10v10h-10V90z M130,60h10v10h-10V60z M200,170h10v10h-10V170z M150,60h10v10h-10V60z
	 M140,70h10v10h-10V70z M190,160h10v10h-10V160z M200,150h10v10h-10V150z M120,90h10v10h-10V90z M140,50h10v10h-10V50z M210,160h10
	v10h-10V160z"/>
<path id="fdc100" class="st4" d="M100,50h10v10h-10V50z M210,180v30h10v-40h-10V180z M190,70h10v10h10V60h-20V70z M210,150v10h10V80
	h-10V150z M120,60h-10v10h20V60H120z M170,50h20v10h-20V50z M100,80h10v10h-10V80z M100,110h10v10h-10V110z M110,150h10v60h-10V150z
	"/>
</svg>
