<?xml version="1.0" encoding="utf-8"?>
<!-- Generator: Adobe Illustrator 26.5.0, SVG Export Plug-In . SVG Version: 6.00 Build 0)  -->
<svg version="1.1"
	 id="Layer_1" shape-rendering="crispEdges" xmlns:svg="http://www.w3.org/2000/svg" xmlns:inkscape="http://www.inkscape.org/namespaces/inkscape" xmlns:sodipodi="http://sodipodi.sourceforge.net/DTD/sodipodi-0.dtd"
	 xmlns="http://www.w3.org/2000/svg" xmlns:xlink="http://www.w3.org/1999/xlink" x="0px" y="0px" viewBox="0 0 320 320"
	 style="enable-background:new 0 0 320 320;" xml:space="preserve">
<style type="text/css">
	.st0{fill:#5227A7;}
	.st1{fill:#FFFFFF;}
	.st2{fill:#F2A52B;}
	.st3{fill:#7F3300;}
	.st4{fill:#1F1F1F;}
</style>
<path id="_x35_227a7" class="st0" d="M220,210V60h-10V50H90V40H80v20h10v10h10v10H80V70H70v20h10v10h20v10H70v-10H60v20h10v10h20v10
	h10v70H220z M200,160h-10v10h-10v10h-10v10h-10v-10h-10v-10h-10v-10h-10v-20h10v-10h50v10h10V160z M170,100V90h10h20v30h-30V100z
	 M120,100V90h10h20v30h-30V100z"/>
<path id="ffffff" class="st1" d="M120,90h10v10h-10V90z M170,90h10v10h-10V90z"/>
<path id="f2a52b" class="st2" d="M160,190h10v-10h10v-10h10v-10h10v-20h-10v-10h-50v10h-10v20h10v10h10v10h10V190z M180,150h-10v-10
	h10V150z M150,140h10v10h-10V140z"/>
<path id="_x37_f3300" class="st3" d="M150,140h10v10h-10V140z M170,140h10v10h-10V140z"/>
<path id="_x31_f1f1f" class="st4" d="M60,100h10v10H60V100z M80,110h10v10H80V110z M90,70h10v10H90V70z M210,50h10v20h-10V50z
	 M100,50h10v10h-10V50z M180,40h30v10h-30V40z M110,40h40v10h-40V40z M80,40h10v10H80V40z M70,70h10v10H70V70z M210,200h10v10h-10
	V200z M110,200h10v10h-10V200z"/>
<path id="_x30_00000" d="M180,90v10h-10v20h30V90H180z M150,120V90h-20v10h-10v20H150z M210,70h10v10h-10V70z M180,50V40h-30v10h-40
	v10h-10V50H90H80v10h10v10h10v10H90H80H70v10h10v10h10v10v10H80v-10H70H60v10h10v10h20v10h10v20h10v-30h-10v-30V90h10V80h10V70h10
	V60h70v10h10V50H180z M110,200h10v10h10h10v-20h-10v-10h-30v30h10V200z M210,210v-10h10v-20h-20v10h-10v20h10H210z"/>
</svg>
