<?xml version="1.0" encoding="utf-8"?>
<!-- Generator: Adobe Illustrator 26.5.0, SVG Export Plug-In . SVG Version: 6.00 Build 0)  -->
<svg version="1.1"
	 id="Layer_1" shape-rendering="crispEdges" xmlns:svg="http://www.w3.org/2000/svg" xmlns:inkscape="http://www.inkscape.org/namespaces/inkscape" xmlns:sodipodi="http://sodipodi.sourceforge.net/DTD/sodipodi-0.dtd"
	 xmlns="http://www.w3.org/2000/svg" xmlns:xlink="http://www.w3.org/1999/xlink" x="0px" y="0px" viewBox="0 0 320 320"
	 style="enable-background:new 0 0 320 320;" xml:space="preserve">
<style type="text/css">
	.st0{fill:#F7931A;}
	.st1{fill:#FFD800;}
	.st2{fill:#FDC100;}
	.st3{fill:#FBAB00;}
</style>
<path id="f7931a" class="st0" d="M290,200h10v10h-10V200z M300,180h10v10h-10V180z M240,260v10v20v10h10v-10v-30H240z M260,240v10
	v10v10h10v-10v-20H260z M280,230v10h10v-20h-10V230z"/>
<path id="ffd800" class="st1" d="M230,230v10v10v10h10v-10h10h10v-10h10v-10h10v-10v-10v-20h-20v10h-30v10V230z"/>
<path id="fdc100" class="st2" d="M290,190h-10v20h10v-10V190z M230,260h10v10h-10V260z M250,250h10v10h-10V250z M270,230h10v10h-10
	V230z M290,180h10v10h-10V180z"/>
<path id="fbab00" class="st3" d="M280,210h10v10h-10V210z M230,270h10v20h-10V270z M270,240h10v20h-10V240z M240,250h10v10h-10V250z
	 M250,260v30h10v-20v-10H250z M290,190h10v10h-10V190z"/>
</svg>
