<?xml version="1.0" encoding="utf-8"?>
<!-- Generator: Adobe Illustrator 26.5.0, SVG Export Plug-In . SVG Version: 6.00 Build 0)  -->
<svg version="1.1"
	 id="Layer_1" shape-rendering="crispEdges" xmlns:svg="http://www.w3.org/2000/svg" xmlns:inkscape="http://www.inkscape.org/namespaces/inkscape" xmlns:sodipodi="http://sodipodi.sourceforge.net/DTD/sodipodi-0.dtd"
	 xmlns="http://www.w3.org/2000/svg" xmlns:xlink="http://www.w3.org/1999/xlink" x="0px" y="0px" viewBox="0 0 320 320"
	 style="enable-background:new 0 0 320 320;" xml:space="preserve">
<style type="text/css">
	.st0{fill:#F7931A;}
	.st1{fill:#FFD800;}
	.st2{fill:#FDC100;}
	.st3{fill:#FBAB00;}
</style>
<path id="f7931a" class="st0" d="M80,260H70v30v10h10v-10v-20V260z M40,220H30v20h10v-10V220z M60,250v-10H50v20v10h10v-10V250z
	 M10,180h10v10H10V180z M20,200h10v10H20V200z"/>
<path id="ffd800" class="st1" d="M40,220v10h10v10h10v10h10h10h10v-10v-10v-20v-10H60v-10H40v20V220z"/>
<path id="fdc100" class="st2" d="M40,230h10v10H40V230z M60,250h10v10H60V250z M80,260v10h10v-10v-10H80V260z M20,180h10v10H20V180z
	 M40,190H30v10v10h10V190z"/>
<path id="fbab00" class="st3" d="M70,250h10v10H70V250z M30,210h10v10H30V210z M20,190h10v10H20V190z M60,260v10v20h10v-30H60z
	 M80,270h10v20H80V270z M40,240h10v20H40V240z"/>
</svg>
