<?xml version="1.0" encoding="utf-8"?>
<!-- Generator: Adobe Illustrator 26.5.0, SVG Export Plug-In . SVG Version: 6.00 Build 0)  -->
<svg version="1.1"
	 id="Bg_x5F_Pool" shape-rendering="crispEdges" xmlns:svg="http://www.w3.org/2000/svg" xmlns:inkscape="http://www.inkscape.org/namespaces/inkscape" xmlns:sodipodi="http://sodipodi.sourceforge.net/DTD/sodipodi-0.dtd"
	 xmlns="http://www.w3.org/2000/svg" xmlns:xlink="http://www.w3.org/1999/xlink" x="0px" y="0px" viewBox="0 0 320 320"
	 style="enable-background:new 0 0 320 320;" xml:space="preserve">
<style type="text/css">
	.st0{fill:#69D8FE;}
	.st1{fill:#B1FFFF;}
	.st2{fill:#4DC9FA;}
	.st3{fill:#30B9F6;}
</style>
<path class="st0" d="M70,220H60v-10h10V220z M190,10h10V0h-10V10z M50,250H40v10h10V250z M40,20h10V10H40V20z M240,260h-10v10h-10
	v10h20v-10h10v-10h10h10v-10h-30V260z M260,100h20v10h10v10v10h10v-10h10v-10h-10v-10h-10V90h-20h-10V100z M240,150h-10v10h10V150z
	 M210,50h30V40h-30V50z M40,20H30v10h10V20z M230,160h-10v10h10V160z M20,10H10v10h10V10z M90,230v-10H80H70v10h10v10h10V230z
	 M160,50h10V40h-10V50z M200,60h10V50h-10V60z M120,60h-10v10h10V60z M40,170H30v10h10V170z M30,300h10v-10H30V300z M20,300H10v10
	h10V300z M30,160H10v10h10h10V160z M130,90h30V80h-30V90z M110,120h-10v10h10V120z M100,180H90v10h10V180z M110,140h10v-10h-10V140z
	 M260,100h-10v10h10V100z M170,150h-20v10h20V150z M130,220h-10v10h-10v10h20v-10V220z M210,180h10v-10h-10V180z M220,130h-10v10h10
	V130z M250,120h-20v10h10h10V120z M90,210h10h20h10h10v10h10v-10h20v-10h-50v-10h-10h-10v10H90v-10H80v10H70v10h10H90z M10,0H0v10
	h10V0z M10,110h10v10h40v10h10v10h10v10h10v20h10v10h10v-10h30v-10h-20v-10h-10v10h-10v-30H90v-10H80v-10h10v-10h20V90V70h-10V50h10
	h10V40h20V30h10h20v10h30V30h-20V20h10V10h-10h-10v10h-10h-40v10h-10v10h-10H70V30H50v10H30v10h20v10h10V50h30v20v10h10v10H80v10H70
	v10H40v-10H20V90H0v10h10V110z M300,140h-10v20h-10v10h-20h-10v-10h-10v10h-10v10h10h30v10h-10v10h-10v10h-20v10h-20v-10h-30v10h20
	v10h10h20v20h10v-10v-20h20v-10h10v-10h10v-10h10v-20h10v-20h10v-10h10v-10h-20V140z M280,310h-20v-10h-20v10h10v10h30V310z
	 M310,260h-30v10h10h30v-20h-10V260z M20,250h20v-20h20v-10H30v10H0v10h20V250z M10,310H0v10h10V310z M10,150H0v10h10V150z M110,310
	h40v-10h30v-10h10v10h40h10v-10h-20v-10h-20h-60v10h-30v10h-10v-10H80v-10H70v-10H60v-10H50v20H40v10h10h10v10h10v10h20v10h20V310z
	 M20,70V60h10V50H10v10H0v10h10H20z M300,20h-30v10h-10v10h-10v10v10v10h-20v10h-10h-10v10h-10h-30v10h10v10h10v-10h10h30V90h30V60
	h10V50V40h10V30h30V20h10V10h-20V20z M20,10h20V0H20V10z"/>
<path class="st1" d="M90,120H80v-10h10V120z M90,310H70v10h20V310z M100,120H90v10h10V120z M130,230h10v-10h-10V230z M110,230H90v10
	h20V230z M310,150h-10v20h10V150z M110,140v-10h-10v30h10v-10V140z M100,190h10v-10h-10V190z M150,150h-10v10h10V150z M20,310H10v10
	h10V310z M80,230H70v10h10V230z M30,170H20v10h10V170z M310,150h10v-10h-10V150z M60,120H20v10h40V120z M260,110h20v-10h-20V110z
	 M230,310h10v-10h-10V310z M90,200h10v-10H90V200z M260,270h20v-10h-10h-10V270z M20,310h10v-10H20V310z M40,300h10v-10H40V300z
	 M60,310h10v-10H60V310z M310,30h-30v10h-10v10h20V40h30V20h-10V30z M200,140h-30v10h30V140z M250,310h-10v10h10V310z M280,120h10
	v-10h-10V120z M290,280h30v-10h-30V280z M130,80V70h-10h-10v20h20V80z M150,40h10h10V30h-20V40z M110,60V50h-10v20h10V60z M180,10
	h10V0h-10V10z M10,160H0v10h10V160z M210,60h40V50h-10h-30V60z M150,210v10h30v-10h-10H150z M210,240h10v20h-10v10h-10v10h20v-10h10
	v-10h10v-10h-10v-20h-20V240z M170,50h30h10V40h-10h-30V50z M20,70h10V60H20V70z M10,70H0v10h10V70z M260,100V90h-30v10h20H260z
	 M20,110H10v-10H0v20h20V110z M230,170h10v-10h-10V170z M200,100h-10v10h10V100z M130,90v10h40V90h-10H130z M170,110h10v-10h-10V110
	z M270,150h-30v10h10h10v10h20v-10h-10V150z M40,250H20v10h20V250z M70,220H60v10h10V220z M20,240H0v10h20V240z M10,10h10V0H10V10z
	 M40,10H20v10h10h10V10z M70,20H50H40v10h10h20V20z M160,20h10V10h-10V20z M100,30H70v10h30V30z M30,60h20V50H30V60z"/>
<path class="st2" d="M200,80h10v10h-10V80z M130,110h30v10h50v-10h40v-10h-20h-30v10h-10h-10h-10v-10h-40V110z M40,10h10h30V0H40V10
	z M290,270h-10h-20v-10h-10v10h-10v10h-20v10h20h20v-10h20v10h40v-10h-30V270z M150,160h-10v10h10V160z M120,220h10v-10h-10V220z
	 M10,40h20h20V30H40H30V20H20H10V10H0v20h10V40z M140,150h-20v10h20V150z M40,310h20v-10v-10H50v10H40H30v10H20v10h20V310z M290,50
	h-20v10h-10v30h10V70h20V60h30V40h-30V50z M310,240h-10v10h-20v10h30v-10h10v-20h-10V240z M170,260h10v-10h-10V260z M100,290v10h10
	v-10h30v-10h-40V290z M180,190h-40v-20h-30v10v10h10v10h50v10h10h30v10h20v-10h20v-10h-70V190z M240,190h10v10h10v-10h10v-10h-30
	V190z M40,150h20v10h20v20h10h10v-10H90v-20H80v-10H70v-10H60H20v-10H0v20h40V150z M140,220v10h-10v10h-20H90H80H70v-10H60H40v20h10
	v10h10h50v10h10v-10h10v10h10v10h60v-10h-50v-20h20v-10h20v10h10v10h10h10v-20h-10v-10h-10v-10h-20h-30H140z M280,150h-10v10h10h10
	v-20h-10V150z M140,10h20h10h10V0h-40V10z M240,310h-10v-10h-40v-10h-10v10h-30v10h-40v10h60v-10h40v10h30V310z M90,220h10v-10H90
	V220z M260,160h-10v10h10V160z M30,220h30v-10h10v-10v-10H50v-10H40v20h10v10H20v10H0v10h30V220z M70,220h10v-10H70V220z M220,180
	h10v-10h-10V180z M10,280h20v-10h10v10h10v-20H40H20v-10H0v20h10V280z M110,120v-10h10v-10h10V90h-20v10H90v10v10h10H110z M200,10
	h-10v10h-10v10h20V20h10V10h10V0h-20V10z M310,170h-10h-10v20h-10v10h-10v10h20v-10h10v-10h20v-40h-10V170z M20,80h20V70h20V60H50
	H30v10H20H10v10H0v10h20V80z M200,140v10h-30v10h20v10h10v10h10v-10v-20h10v-10h-10H200z M80,70h10V50H60v10h20V70z M110,130h10v-10
	h-10V130z M250,120v10h40v-10h-10v-10h-20h-10V120z M110,60h10h10V50h30V40h-10V30h-10v10h-20v10h-10V60z M200,60V50h-30h-10v10h20
	v10h40v10h10V70h20V60h-40H200z M250,230h10v-10h-20v20h10V230z M220,130v10h20v-10h-10H220z"/>
<path class="st3" d="M10,310H0v-40h10v10h20v-10h10v10v10H30v10H20H10V310z M140,210h-10v10h10V210z M210,260h-10v-10h-10v-10h-20
	v10h10v10h-10v-10h-20v20h50h10V260z M300,200h-10v10h-20h-10v10v10h-10v10h-10v10h30v10h10v-10h20v-10h10v-10h10v-40h-20V200z
	 M140,270h-10v-10h-10v10h-10v-10H60v10h10v10h10v10h20v-10h40V270z M220,70h-40V60h-20V50h-30v10h-10v10h10v10h30v10h10h30V80h10
	h10V70z M90,210H80v10h10V210z M100,220H90v10h20h10v-10v-10h-20V220z M290,70h-20v20h20v10h10v10h10v10h-10v10h20V60h-30V70z
	 M10,50h20V40H10V30H0v30h10V50z M150,150h20v-10h30h10v-10h10h10v-10h20v-10h-40v10h-50v-10h-30v-10h-10v10h-10v10h10v10v10h-10v10
	h10h20H150z M70,310H60H40v10h30V310z M10,160h20v10h10v10h10v10h20v10h10v-10h10v-10H80v-20H60v-10H40v-10H0v10h10V160z M220,0v10
	h-10v10h-10v10v10h10h30v10h10V40h10V30h10V20h30V10h20V0H220z M250,130h-10v10h-20v10h-10v20h10v-10h10v-10h10h30h10v-10h10h10v-10
	h-10H250z M20,210h30v-10H40v-20H30H20v-10H10H0v50h20V210z M80,10H50v10h20v10h30v10h10V30h10V20h40V10h-20V0H80V10z M60,70H40v10
	H20v10v10h20v10h30v-10h10V90h20V80H90V70H80V60H60V70z M210,310h-40v10h40V310z M210,180h-10v-10h-10v-10h-20h-20v10h-10v20h40v10
	h70v-10h-10v-10h-10h-10H210z M280,280h-20v10h-20v10h20v10h20v10h40v-30h-40V280z"/>
</svg>
