<?xml version="1.0" encoding="utf-8"?>
<!-- Generator: Adobe Illustrator 26.5.0, SVG Export Plug-In . SVG Version: 6.00 Build 0)  -->
<svg version="1.1"
	 id="Bg_x5F_Matrix" shape-rendering="crispEdges" xmlns:svg="http://www.w3.org/2000/svg" xmlns:inkscape="http://www.inkscape.org/namespaces/inkscape" xmlns:sodipodi="http://sodipodi.sourceforge.net/DTD/sodipodi-0.dtd"
	 xmlns="http://www.w3.org/2000/svg" xmlns:xlink="http://www.w3.org/1999/xlink" x="0px" y="0px" viewBox="0 0 320 320"
	 style="enable-background:new 0 0 320 320;" xml:space="preserve">
<style type="text/css">
	.st0{fill:#060F06;}
	.st1{fill:#41FF41;}
	.st2{fill:#091609;}
	.st3{fill:#0C200C;}
	.st4{fill:#102B10;}
</style>
<path class="st0" d="M60,0h10v10H60V0z M10,40h10h10V30h10V20h10V0H0v70h10V40z M250,10h10v10h-10V10z M10,260h10v10H10V260z M110,0
	h10v10h-10V0z M60,300h10v10H60V300z M0,80h10v10H0V80z M40,290h10v10H40V290z M70,10h10v10H70V10z M20,50h10v10H20V50z M40,30h10
	v10H40V30z M210,0h10v10h-10V0z M90,0h10v10H90V0z M60,20h10v10H60V20z M230,0h10v10h-10V0z M20,270h10v10H20V270z M310,60h10v10
	h-10V60z M250,310h10v10h-10V310z M260,300h10v10h-10V300z M50,310H40v-10H30v-10H20v-10H10v-10H0v50h50V310z M310,290h-10v10h-10
	v10h-10v10h40v-40h-10V290z M260,0v10h20v10h10v10h10v10h10v10h10V0H260z M300,270h10v10h-10V270z M0,240h10v10H0V240z M310,260h10
	v10h-10V260z M70,310h10v10H70V310z M300,50h10v10h-10V50z M280,30h10v10h-10V30z"/>
<path class="st1" d="M140,140h10v10h-10V140z M220,130h10v10h-10V130z M160,130h10v-30V90h-10v10V130z M190,230h10v20h-10V230z
	 M230,20h10v10h-10V20z M210,230h10v20h-10V230z M210,140h10v20h-10V140z M230,160h10v-10v-10h-10V160z M220,160h10v10h-10V160z
	 M90,220h10v20H90V220z M150,150h10v20h-10V150z M200,300v10h10v-10v-10h-10V300z M190,280h10v10h-10V280z M190,300v-10h-10v10v10
	h10V300z M130,150h10v20h-10V150z M140,170h10v10h-10V170z M70,170h10v-10v-10v-20H70V170z M100,210h10v10h-10V210z M30,180h10v10
	H30V180z M20,160h10v20H20V160z M120,30h10v10h-10V30z M40,180h10v-10v-10H40V180z M110,60h10V50V40h-10v10V60z M130,50v10h10V40
	h-10V50z M200,220h10v10h-10V220z M30,150h10v10H30V150z M230,40V30h-10v10v10h10V40z M100,240h10v10h-10V240z M110,220h10v20h-10
	V220z M140,270v10h10v-10v-20v-10h-10V270z M290,170h-10v10v10h10V170z M200,250h10v10h-10V250z M120,60h10v10h-10V60z M240,200v20
	h10v-40h-10v10V200z M230,50h10v10h-10V50z M290,120h10V80h-10v30V120z M260,50v10h10V20h-10V50z M300,170h10v20h-10V170z M190,310
	h10v10h-10V310z M280,260h10v40h-10V260z M290,190h10v10h-10V190z M10,240h10v10H10V240z M290,160h10v10h-10V160z M10,70v10h10V60
	V50V40H10V70z M10,260v-10H0v20h10V260z M50,300v10h10v-10v-30H50v20V300z M10,270h10v10H10V270z M50,20v10v10h10V30V20V10V0H50V20z
	 M250,30h-10v10v10h10V30z M20,260v10h10v-20H20V260z"/>
<path class="st2" d="M30,160h10v20H30V160z M50,170h10v10H50V170z M50,150h10v10H50V150z M60,10h10v10H60V10z M60,200h10v10H60V200z
	 M270,190h10v10h-10V190z M190,270h10v10h-10V270z M50,190h10v10H50V190z M40,20h10v10H40V20z M270,170h10v10h-10V170z M40,200h10
	v10H40V200z M220,260h10v10h-10V260z M100,60h10v10h-10V60z M70,310H60H50v10h20V310z M190,310h-10h-10v-10h10v-10h-50v-10h-30v10
	H90v-10h10v-10H90v-10H80v-10H70v-10H60v10H50v-10h10v-10H50v-10H40v10H30v-10h10v-10H30v-10h10v-10H30H20v-10v-20h10v-10H20v-10h10
	v10h10v-20H30v-10h10v-10H30v-10h10v10h10v-10h10V90H50V80h10v10h10V80h10V70h10V60h10V50H90V40h10v10h10V40V30h10h10V20h10v10h-10
	v10h10h60v10h20V40h-10V30h10h10V20h10v10h10v20h10V20h-10V10h10V0h-20v10h-10V0h-10v10h-10V0h-90v10h-10V0h-10v10H90V0H70v10h10v10
	H70v10H60v10H50H40V30H30v10H20v10h10v10H20v20H10v10H0v150h10h10v10h10v20v10H20v10h10v10h10v-10h10v-20h10v-10h10v10h10v10H70v-10
	H60v30h10v10h10v10h110V310z M180,30h-10V20h10V30z M160,30h-10V20h10V30z M200,30h-10V20h10V30z M60,60h10V50h10v10H70v10H60V60z
	 M150,300h10v10h-10V300z M110,290h10v10h-10V290z M130,300h10v10h-10V300z M120,40h10v10h-10V40z M40,300h10v10H40V300z M200,60h10
	v10h-10V60z M80,80h10v10H80V80z M260,220h10v10h-10V220z M0,70h10v10H0V70z M240,240h10v10h-10V240z M50,130h10v10H50V130z
	 M260,200h10v10h-10V200z M60,120h10v10H60V120z M60,100h10v10H60V100z M40,120h10v10H40V120z M220,60h10v10h-10V60z M170,50h10v10
	h-10V50z M150,50h10v10h-10V50z M240,80h10v10h-10V80z M270,130h10v10h-10V130z M80,240h10v10H80V240z M270,150h10v10h-10V150z
	 M280,120h10v10h-10V120z M260,100h10v10h-10V100z M260,120h10v10h-10V120z M190,50h10v10h-10V50z M60,220h10v10H60V220z M290,170
	h10v20h-10V170z M310,270h10v10h-10V270z M170,270h10v10h-10V270z M200,260h10v10h-10V260z M310,50h10v10h-10V50z M230,30h10v10h-10
	V30z M190,290h10v10h-10V290z M280,200h10v10h-10V200z M130,270h10v10h-10V270z M10,250h10v10H10V250z M100,260h10v10h-10V260z
	 M120,260h10v10h-10V260z M310,60h-10V50h10V40h-10V30h-10v10h-10V30h10V20h-10V10h-20v10h10v40v10h-10V60h-10V50h-10v10v10h10v10
	h10v10h10V80h10v10h-10v10h10v10h10V80h10v40v10h-10v30h10h10v10v20h-10v10v10h-10v10h10v10h-10v-10h-10v10h-10v10h10v10h-10v-10
	h-10v10h-10v10h-10v10h-10v10h10v10h-10v-10h-30v10h10h10v10h-10v10h-10v10h50v-10h10v-10h10v10h-10v10h20v-10h10v-10h-10v-40h10v40
	h10v-10h10v-10h-10v-10h10v-10h10V70h-10V60z M270,270h-10v10h-10v-10h10v-10h10V270z M310,150h-10v-10h10V150z M150,270h10v10h-10
	V270z"/>
<path class="st3" d="M110,290h10v10h-10V290z M60,60h10v10H60V60z M70,50h10v10H70V50z M150,300h10v10h-10V300z M150,20h10v10h-10
	V20z M130,300h10v10h-10V300z M190,20h10v10h-10V20z M130,270h-10v-10h10V270h10v-30h-10v-10h10v-10h-20v20h-10v10h-10v-10H90v10H80
	v10h10v10h10v-10h10v10h-10v10h30V270z M130,20h10v10h-10V20z M100,50h10v10h-10V50z M30,100h10v10H30V100z M210,30h10v10h-10V30z
	 M50,80h10v10H50V80z M90,40h10v10H90V40z M110,30h10v10h-10V30z M60,260h10v10H60V260z M70,270h10v10H70V270z M120,50h10v10h-10V50
	z M20,140h10v10H20V140z M30,220h10v10H30V220z M290,220h10v10h-10V220z M270,80h10v10h-10V80z M300,140h10v10h-10V140z M260,260h10
	v10h-10V260z M260,60h10v10h-10V60z M270,240h10v10h-10V240z M50,240h10v10H50V240z M90,280h10v10H90V280z M230,280h10v10h-10V280z
	 M280,190h10v10h-10V190z M170,300h10v10h-10V300z M100,220h10v20h-10V220z M190,280v-10h10v-10v-10h-10v-20h-50v10h10h10v10h-10v20
	h10v10h-10h-10h-10v10h50h10V280z M170,240h10v10h-10V240z M170,270h10v10h-10V270z M300,160h10v10h-10V160z M110,210h10v10h-10V210
	z M210,290h10v10h-10V290z M290,200h10v10h-10V200z M250,270h10v10h-10V270z M110,110h10v10h-10V110z M30,120h10v10H30V120z
	 M190,300h10v10h-10V300z M250,50h10v10h-10V50z M230,40h10v10h-10V40z M30,200h10v10H30V200z M20,180h10v10H20V180z M290,120h10v10
	h-10V120z M210,210h10v10h-10V210z M210,110h10v10h-10V110z M190,220h10v10h-10V220z M200,230h10v20h-10V230z M230,70h-10V60h10V50
	h-10h-20v10h10v10h-10V60h-10V50h10V40h-60v20h-10v10h-10V60h-10v10h-10V60H90v10H80v10h10v10H80V80H70v10H60v10h10v10H60v-10H50v10
	H40v10h10v10h10v-10h10v10h10v20h10v10H80v10h10v10H80v-10H70v-40H60v10H50v-10H40v20v10h10v-10h10v10H50v10h10v10H50H40v10v10h10
	v-10h10v10h10v10H60v-10H50v10H40v10h10v10h10v-10h10v10H60v10h10v10h10v-10h10v-20h10v-10h10v-20h-10v10H90v-10h10v-50H90v-10h10
	v10h10v-20h-10v-10h10v-10h10v10h20v-10h-10V90h10v10h20V90h-10V80h10v10h10V80h10v10h-10v10h20V90h10v10h-10v10h20v-10h10v10h10v10
	h-10v10h10h10v10v10h10v10h-10h-10v10v20h10v-10v-10h10v10v40h-10v-20h-10v-10h-10v20h10v10h-10v10v20h-10v10v10h-10v10h30v-10h-10
	v-10h10v10h10v-10h10v-10h-10v-10h10v10h10v-10h10v-10h-10v-10h10v10h10v-10h10v-10h-10v-10h-10v10h-10v-10h10v-10h10v-10h-10v-10
	h10h10v-10v-30h-10v10h-10v-10h-10v-10h10v10h10v-10h10v-10h-10v-10h-10v10h-10v-10h10V90h-10V80h-10v10h-10V80h10V70h-10V60h-10V70
	z M180,60h-10V50h10V60z M150,50h10v10h-10V50z M280,160h-10v-10h10V160z M170,20h10v10h-10V20z"/>
<path class="st4" d="M210,220h10v10h-10V220z M190,90h10v10h-10V90z M150,80h10v10h-10V80z M170,80h10v10h-10V80z M230,190h10v10
	h-10V190z M210,100h10v10h-10V100z M240,170h10v10h-10V170z M80,150h10v10H80V150z M90,190h10v10H90V190z M130,90h10v10h-10V90z
	 M110,100h10v10h-10V100z M90,130h10v10H90V130z M220,110h10v10h-10V110z M80,170h10v10H80V170z M100,110h10v10h-10V110z M170,240
	h10v10h-10V240z M230,130h10v10h-10V130z M150,240h10v10h-10V240z M140,150h10v20h-10V150z M240,150h10v10h-10V150z M220,210h10v10
	h-10V210z M130,230h10v10h-10V230z M220,140h10v20h-10V140z M120,220h20v10h50v-10h10h10v-10h10v-20h10v-20h-10v-10h-10v-20h10v-10
	v-10h-10v-10h-20v-10h-20v30h-10v-30h-20v10h-20v10h-10v20h-10v50h10v20h10V220z M130,170v-20h10v-10h10v10h10v20h-10v10h-10v-10
	H130z"/>
</svg>
